<mxfile host="app.diagrams.net" modified="2021-10-24T07:39:36.549Z" agent="5.0 (Windows)" etag="MCumNazZt8QrL6v7_GpK" version="15.5.8" type="github">
  <diagram id="Kq4hmbS83NQviKXq5_Yj" name="ページ1">
    <mxGraphModel dx="572" dy="316" grid="1" gridSize="10" guides="1" tooltips="1" connect="1" arrows="1" fold="1" page="1" pageScale="1" pageWidth="827" pageHeight="1169" math="0" shadow="0">
      <root>
        <mxCell id="0" />
        <mxCell id="1" parent="0" />
        <mxCell id="0BewLSh4bNPLxkypD7xR-2" value="" style="shape=image;verticalLabelPosition=bottom;labelBackgroundColor=#ffffff;verticalAlign=top;aspect=fixed;imageAspect=0;image=data:image/png,iVBORw0KGgoAAAANSUhEUgAAADYAAAAmCAYAAACPk2hGAAAFDElEQVRoge2Yz0tUXRjHnzt3Jsew/oMWLSsyJAjMNm2spGzgWo02JIIRrYSghQr9Bf0RgQhq6aZV1kYpWxTUIoJoMZCgKJQRNjn3nns/7yLO6dw7YzP+mBde3vmCzL3nPPc5z/c5z3Oe5yg0GNPT0ziOw8zMTKOXikEavUCT2D6jSWy3aBLbZzSJ7RZNYvuMJrHdoklsn/H/IxYEgXlWSlUdj6Ko4jcMw5ieiYkJUqkUT548MXNhGFbI6Xd7raTsdjI7Igbg+74hYitTSpn3MAxjZOEP+SiKmJubQ0SYnZ3l169fMRlbpzba933zbRRFbG1tVRCtB9sSs71fKpUYHx/H8zz6+vro7++nr6+PgYEBCoUCvb295PN5PM/D8zxu3LhBLpcjn89z9uxZRIRz587R399PLpfj6tWr5tsrV65w7do18vk8uVyOmzdv4nkeuVyOQqHAgwcPCMMQpZRxTJLsjogppQy5UqnE0aNHyWQyiAgiQjqdNs/ZbNY8axnXdc2YfnYcB9d1K/TYsnpMyxw5coRSqVTXLtVFrBbsMPJ9nyiKuH//Pq7rMjk5CfzJPYC3b9/iui4XLlww4QZ/wvb06dMcOnSIYrFoxmw5gHK5XFd+QQ1i2rAwDGNKoygyi5bLZQC+fv1KJpPh+PHjsYRXShEEAYVCARHh5cuXRqfGs2fPaGlpYWhoyOjTUEoRhqGxJZnPOyamFdoEk4Q1uVKpxMjICCLC06dPCYLAGBCGIR8+fCCVStHT02N02+jo6MBxHJaXl43x9uGkv6knt2oS09CKbUNt45RSfP/+ncOHD3PixImYx7XM9evXERFev34d83i5XGZ+fp50Os3Q0FDsG3tHbZ31kttRjtkhYe/ivXv3cByHx48fx+aiKOL9+/c4jsPly5dNWNr6zpw5QzabpVgsVhDaC2rmWDIMbQRBwPr6Oq2trbS3t1ccKAADAwOICK9evQLiBXd+fh7Hcbh161Zsnb+tWS92RcweHx0dxXEcJicnTchowz99+oSI0N3dDfwmqwmHYUhXVxcHDhxgbW0NYFfH+nbYUSjquqb/vn37Rjqd5tSpUxW5COB5HiLCmzdvKlq0hYUFRITbt2+jlIqRauiOVTsJ7fj3fZ/x8XFEhJmZmVgpAHj37h2pVIre3t6YHt1FdHR0kM1mWV1drTq/V9RNLImNjQ0ymQwnT5408vqbcrlMPp/n4MGDLC4umvDTvy9evEBEuHPnDkEQbFtW9oK6QjGZ2L7vMzY2huM4TExMEASBMToIAj5+/Eg6nebixYtm3N6Fzs5OWltb+fLli5nTa9iNckOJJa8Yvu/z48cP2traOHbsmBm3DdddxtLSUswpSimeP3+OiDA8PGz0a+ga1dBQ/Fs9GR0dRUSYmpqKjW9tbVEsFnFdl0uXLgHEQs33fc6fP08mk2FlZSV2YFS7wuwFNe9j9sJKKTY2Nmhra6O9vR34HZp2ZzA4OGh6QvtuBbC0tISIcPfu3ao94b+WY7a3bQOGh4dNwbXh+z6PHj3i4cOHFXoAPn/+zODgICsrK7H5ajfqvaLuU9EurHZnr+XsW3W1sEoWb7smNgI7JqYNtJtR+3qj3+35ZNhtt4Ym29ACbXfZSa9qo3/+/BkbT8ptbm7G3u3drdWq7RU1d0wpZTxezfM6D6sd1VEUxUJUw7487ucu2fjr4VGtW7cLMcR3yf7v1Ha1qJpzkqQaWsf+6/gHlsMRbmThunoAAAAASUVORK5CYII=;" vertex="1" parent="1">
          <mxGeometry x="511.58" y="510" width="28.42" height="20" as="geometry" />
        </mxCell>
        <mxCell id="ZBUl8ICLFeTK93RNybx5-3" value="" style="verticalLabelPosition=bottom;shadow=0;dashed=0;align=center;fillColor=#000000;html=1;verticalAlign=top;strokeWidth=1;shape=mxgraph.electrical.miscellaneous.monocell_battery;fontSize=20;rotation=-90;" vertex="1" parent="1">
          <mxGeometry x="485" y="395" width="80" height="50" as="geometry" />
        </mxCell>
        <mxCell id="oxyjLJbU5iXGi_ROdamL-1" value="" style="rounded=0;whiteSpace=wrap;html=1;dashed=1;" parent="1" vertex="1">
          <mxGeometry x="280" y="300" width="180" height="170" as="geometry" />
        </mxCell>
        <mxCell id="oxyjLJbU5iXGi_ROdamL-2" value="Blackout curtain" style="text;html=1;strokeColor=none;fillColor=default;align=center;verticalAlign=middle;whiteSpace=wrap;rounded=0;dashed=1;" parent="1" vertex="1">
          <mxGeometry x="300" y="280" width="60" height="30" as="geometry" />
        </mxCell>
        <mxCell id="oxyjLJbU5iXGi_ROdamL-3" value="" style="triangle;whiteSpace=wrap;html=1;fillColor=#595959;rotation=90;" parent="1" vertex="1">
          <mxGeometry x="354" y="336" width="60" height="20" as="geometry" />
        </mxCell>
        <mxCell id="oxyjLJbU5iXGi_ROdamL-4" value="&lt;div&gt;Needle electrode&lt;/div&gt;" style="text;html=1;strokeColor=none;fillColor=default;align=center;verticalAlign=middle;whiteSpace=wrap;rounded=0;dashed=1;" parent="1" vertex="1">
          <mxGeometry x="310" y="350" width="60" height="30" as="geometry" />
        </mxCell>
        <mxCell id="oxyjLJbU5iXGi_ROdamL-7" value="" style="rounded=1;whiteSpace=wrap;html=1;fillColor=#BABABA;" parent="1" vertex="1">
          <mxGeometry x="324" y="430" width="120" height="10" as="geometry" />
        </mxCell>
        <mxCell id="oxyjLJbU5iXGi_ROdamL-6" value="" style="endArrow=none;html=1;strokeWidth=2;rounded=0;dashed=1;dashPattern=1 1;" parent="1" edge="1">
          <mxGeometry width="50" height="50" relative="1" as="geometry">
            <mxPoint x="370" y="380.76" as="sourcePoint" />
            <mxPoint x="416" y="380.76" as="targetPoint" />
            <Array as="points">
              <mxPoint x="396" y="380.76" />
            </Array>
          </mxGeometry>
        </mxCell>
        <mxCell id="oxyjLJbU5iXGi_ROdamL-10" value="" style="endArrow=open;startArrow=open;html=1;rounded=0;startFill=0;endFill=0;" parent="1" edge="1">
          <mxGeometry width="50" height="50" relative="1" as="geometry">
            <mxPoint x="400" y="430" as="sourcePoint" />
            <mxPoint x="400" y="380" as="targetPoint" />
            <Array as="points">
              <mxPoint x="400" y="410" />
            </Array>
          </mxGeometry>
        </mxCell>
        <mxCell id="oxyjLJbU5iXGi_ROdamL-11" value="&lt;div&gt;&lt;font face=&quot;Times New Roman&quot;&gt;&lt;i&gt;d&lt;/i&gt;[m]&lt;/font&gt;&lt;/div&gt;" style="text;html=1;strokeColor=none;fillColor=none;align=center;verticalAlign=middle;whiteSpace=wrap;rounded=0;dashed=1;" parent="1" vertex="1">
          <mxGeometry x="390" y="390" width="60" height="30" as="geometry" />
        </mxCell>
        <mxCell id="oxyjLJbU5iXGi_ROdamL-13" value="Flat plate electrode" style="text;html=1;strokeColor=none;fillColor=none;align=center;verticalAlign=middle;whiteSpace=wrap;rounded=0;dashed=1;" parent="1" vertex="1">
          <mxGeometry x="280" y="400" width="120" height="30" as="geometry" />
        </mxCell>
        <mxCell id="oxyjLJbU5iXGi_ROdamL-18" value="" style="endArrow=none;html=1;rounded=0;fontFamily=Helvetica;fontSize=6;" parent="1" edge="1">
          <mxGeometry width="50" height="50" relative="1" as="geometry">
            <mxPoint x="525" y="450" as="sourcePoint" />
            <mxPoint x="380" y="440" as="targetPoint" />
            <Array as="points">
              <mxPoint x="525" y="490" />
              <mxPoint x="380" y="490" />
            </Array>
          </mxGeometry>
        </mxCell>
        <mxCell id="oxyjLJbU5iXGi_ROdamL-19" value="" style="endArrow=none;html=1;rounded=0;fontFamily=Helvetica;fontSize=6;entryX=0;entryY=0.5;entryDx=0;entryDy=0;exitX=0.5;exitY=0;exitDx=0;exitDy=0;" parent="1" target="oxyjLJbU5iXGi_ROdamL-3" edge="1" source="ZBUl8ICLFeTK93RNybx5-2">
          <mxGeometry width="50" height="50" relative="1" as="geometry">
            <mxPoint x="540" y="346" as="sourcePoint" />
            <mxPoint x="400" y="220" as="targetPoint" />
            <Array as="points">
              <mxPoint x="525" y="270" />
              <mxPoint x="384" y="270" />
            </Array>
          </mxGeometry>
        </mxCell>
        <mxCell id="ZBUl8ICLFeTK93RNybx5-2" value="A" style="ellipse;whiteSpace=wrap;html=1;aspect=fixed;fontSize=20;strokeWidth=1;align=center;" vertex="1" parent="1">
          <mxGeometry x="510" y="356" width="30" height="30" as="geometry" />
        </mxCell>
        <mxCell id="ZBUl8ICLFeTK93RNybx5-4" value="" style="endArrow=block;html=1;rounded=0;fontSize=20;strokeWidth=2;endFill=1;" edge="1" parent="1">
          <mxGeometry width="50" height="50" relative="1" as="geometry">
            <mxPoint x="510" y="436" as="sourcePoint" />
            <mxPoint x="550" y="400" as="targetPoint" />
          </mxGeometry>
        </mxCell>
        <mxCell id="0BewLSh4bNPLxkypD7xR-5" value="" style="endArrow=none;html=1;rounded=0;fontFamily=Helvetica;fontSize=6;" edge="1" parent="1">
          <mxGeometry width="50" height="50" relative="1" as="geometry">
            <mxPoint x="524.76" y="510" as="sourcePoint" />
            <mxPoint x="524.76" y="490" as="targetPoint" />
          </mxGeometry>
        </mxCell>
      </root>
    </mxGraphModel>
  </diagram>
</mxfile>
